# xmcd
#
# Track frame offsets:
#	150
#	19688
#	34003
#	47810
#	63375
#	75935
#	93255
#	108043
#	122054
#	136762
#
# Disc length: 2030 seconds
#
# Revision: 0
# Processed by: cddbd v1.5.2PL0 Copyright (c) Steve Scherf et al.
# Submitted via: EasyCDDAExtractor 16.0.1.1
#
DISCID=6e07ec0a
DTITLE=Kris Kristofferson - The Silver Tongued Devil And I
DYEAR=1971
DGENRE=Country
TTITLE0=The Silver Tongued Devil And I
TTITLE1=Jody And The Kid
TTITLE2=Billy Dee
TTITLE3=Good Christian Soldier
TTITLE4=Breakdown (A Long Way From Home)
TTITLE5=Loving her Was Easier (Than Anything I'll Ever Do Again)
TTITLE6=The Taker
TTITLE7=When I Loved Her
TTITLE8=The Pilgrim_Chapter 33
TTITLE9=Epitaph (Black And Blue)
EXTD=
EXTT0=
EXTT1=
EXTT2=
EXTT3=
EXTT4=
EXTT5=
EXTT6=
EXTT7=
EXTT8=
EXTT9=
PLAYORDER=
